<?xml version="1.0" encoding="utf-8"?>
<!-- Generator: Adobe Illustrator 19.2.0, SVG Export Plug-In . SVG Version: 6.00 Build 0)  -->
<svg version="1.1" id="Layer_1" xmlns="http://www.w3.org/2000/svg" xmlns:xlink="http://www.w3.org/1999/xlink" x="0px" y="0px"
	 viewBox="0 0 606.3 670.5" style="enable-background:new 0 0 606.3 670.5;" xml:space="preserve">
<style type="text/css">
	.st0{fill:#040404;}
</style>
<path class="st0" d="M122,285.1c-27.9,23-69.3,19-92.3-8.9s-19-69.3,8.9-92.3c27.9-23,69.3-19,92.3,8.9
	C153.9,220.8,149.9,262.1,122,285.1z M442,317.9l115.1-10.8c19.5-1.8,33.9-19.1,32-38.7c-1.8-19.5-19.2-33.9-38.7-32l-132,12.4
	c0,0-0.1,0-0.1,0c-0.4,0-0.8,0.1-1.2,0.1c-0.2,0-0.4,0-0.5,0.1c-0.3,0-0.6,0.1-0.9,0.2c-3.1,0.5-6.1,1.5-8.8,2.8c0,0-0.1,0-0.1,0.1
	c-0.4,0.2-0.8,0.4-1.2,0.6c-0.1,0.1-0.3,0.1-0.4,0.2c-0.3,0.2-0.6,0.3-0.9,0.5c-0.2,0.1-0.5,0.3-0.7,0.4c-0.2,0.1-0.4,0.2-0.6,0.4
	c-0.3,0.2-0.6,0.4-0.9,0.6c-0.1,0.1-0.2,0.1-0.3,0.2c-3,2-5.7,4.5-8,7.5c-0.2,0.2-0.3,0.4-0.5,0.6c-0.1,0.2-0.3,0.4-0.4,0.5
	c-0.2,0.3-0.4,0.6-0.7,0.9c0,0,0,0.1-0.1,0.1l-45,67.6l35.2-1.3l-58.3,120.1l-53.9-26.2l-3.7,37.8L201,421.7l-1-31.2l-46-22.3
	l58.3-120.1l34.9,22.1l41.5-36.2l-5.7,58.8l33.1,21l11-113.3l21.8-19c14.8-12.9,16.3-35.3,3.4-50.1c-5-5.8-11.5-9.5-18.4-11.2
	l3.6-85.9c0.4-9.7-7.1-17.8-16.8-18.2c-9.7-0.4-17.8,7.1-18.2,16.8l-4.1,98.4L156.3,255.3L132.8,289c-0.4,0.5-0.7,1.1-1.1,1.6
	c0,0,0,0,0,0c-0.3,0.5-0.6,1-0.9,1.5c-0.1,0.1-0.1,0.2-0.2,0.3c-0.2,0.4-0.4,0.8-0.6,1.2c-0.1,0.2-0.2,0.3-0.2,0.5
	c-0.2,0.4-0.3,0.7-0.5,1.1c-0.1,0.2-0.2,0.4-0.3,0.6c-0.1,0.3-0.3,0.6-0.4,1c-0.1,0.2-0.2,0.5-0.3,0.8c-0.1,0.3-0.2,0.6-0.3,0.9
	c-0.1,0.3-0.2,0.6-0.3,0.8c-0.1,0.3-0.2,0.5-0.2,0.8c-0.1,0.3-0.2,0.6-0.2,0.9c-0.1,0.2-0.1,0.5-0.2,0.7c-0.1,0.3-0.1,0.7-0.2,1.1
	c0,0.2-0.1,0.4-0.1,0.6c-0.1,0.4-0.1,0.8-0.2,1.2c0,0.2,0,0.3-0.1,0.5c-0.1,0.5-0.1,1-0.1,1.4c0,0.1,0,0.2,0,0.3
	c-0.1,1.2-0.1,2.5-0.1,3.7l4.3,132.3c0,0.6,0.1,1.1,0.1,1.7c0,0,0,0.1,0,0.1c0,0.4,0.1,0.8,0.1,1.1c0.6,4.8,2.1,9.3,4.3,13.3
	c0,0.1,0.1,0.1,0.1,0.2c0.1,0.2,0.2,0.4,0.4,0.6c1.8,3.1,4.1,5.9,6.9,8.3c0.1,0.1,0.2,0.2,0.3,0.2c0.3,0.2,0.6,0.5,0.9,0.7
	c0.2,0.1,0.4,0.3,0.5,0.4c0.2,0.2,0.4,0.3,0.7,0.5c0.3,0.2,0.5,0.4,0.8,0.6c0.2,0.1,0.3,0.2,0.5,0.4c0.3,0.2,0.7,0.5,1,0.7
	c0.1,0,0.1,0.1,0.2,0.1l112.2,69.7c0,21.6,3.9,40,11.8,54.9c9.9,19,26.3,31.8,44.9,34.9c3.2,0.5,6.2,0.8,9.1,0.8
	c19.8,0,34.8-11.3,48.3-21.4c16-12,26.6-19.3,42.5-16.9c32.4,5,59.4,26.5,63.3,42.6c1.9,8,9.1,13.4,17,13.4c1.4,0,2.7-0.2,4.1-0.5
	c9.4-2.3,15.2-11.7,12.9-21.1c-10-41.5-61.7-64.3-92-69c-31.2-4.8-52.1,10.9-68.8,23.5c-13.3,10-21.3,15.6-30.5,14.1
	c-11.1-1.9-26.8-15.4-27.5-52.7c6-2.8,11.2-7.3,15-13.3c10-16.1,5.6-37.1-9.8-47.8l3.2-33.1c3.8,1.4,7.9,2.2,12.2,2.3l113.5,1
	l94.6,56.7c5.7,3.4,12,5.1,18.2,5.1c12.1,0,23.8-6.2,30.5-17.3c10.1-16.8,4.6-38.6-12.2-48.7l-102.5-61.4c-0.1,0-0.1-0.1-0.2-0.1
	l-0.3-0.2c-0.1,0-0.1-0.1-0.2-0.1c-0.4-0.3-0.9-0.5-1.3-0.8c-0.1,0-0.2-0.1-0.2-0.1c-0.4-0.2-0.9-0.5-1.3-0.7
	c-0.1-0.1-0.2-0.1-0.3-0.1c-0.4-0.2-0.8-0.4-1.3-0.6c-0.1-0.1-0.3-0.1-0.5-0.2c-0.4-0.1-0.8-0.3-1.1-0.4c-0.2-0.1-0.4-0.1-0.6-0.2
	c-0.3-0.1-0.7-0.2-1-0.3c-0.3-0.1-0.5-0.2-0.8-0.2c-0.3-0.1-0.5-0.1-0.8-0.2c-0.3-0.1-0.7-0.2-1-0.2c-0.2,0-0.4-0.1-0.6-0.1
	c-0.4-0.1-0.8-0.2-1.2-0.2c-0.2,0-0.3-0.1-0.5-0.1c-0.4-0.1-0.9-0.1-1.3-0.2c-0.1,0-0.2,0-0.4,0c-0.5-0.1-1-0.1-1.5-0.1
	c-0.1,0-0.2,0-0.3,0c-0.5,0-1,0-1.5-0.1c-0.1,0-0.1,0-0.2,0l-0.3,0c-0.1,0-0.1,0-0.2,0l-39.2-0.3L442,317.9z M247.2,270.2
	l-34.9-22.1l-58.3,120.1l46,22.3l70.3,34.1l53.9,26.2l58.3-120.1l-35.2,1.3l-2.1,0.1l-29-18.3l-33.1-21L247.2,270.2z"/>
</svg>
