<?xml version="1.0" encoding="utf-8"?>
<!-- Generator: Adobe Illustrator 19.2.0, SVG Export Plug-In . SVG Version: 6.00 Build 0)  -->
<svg version="1.1" id="Layer_1" xmlns="http://www.w3.org/2000/svg" xmlns:xlink="http://www.w3.org/1999/xlink" x="0px" y="0px"
	 viewBox="0 0 427.1 427.1" style="enable-background:new 0 0 427.1 427.1;" xml:space="preserve">
<style type="text/css">
	.st0{fill:#010101;}
</style>
<title>cold</title>
<path class="st0" d="M127.2,213.5c0,8.8,1.4,17.6,4,26.1L94.2,261l-66-17.6c-11.9-3.1-24.1,3.9-27.4,15.7
	c-3.2,11.9,3.9,24.1,15.8,27.2c0,0,0.1,0,0.1,0L70,300.6l-14.4,53.1c-3.2,11.9,4,24.2,15.9,27.4c11.9,3.2,24.2-4,27.4-15.9
	l17.6-65.6l38.8-22.3c10.2,9.3,22.5,16.1,35.9,19.7v50l-48.3,40.8c-8.7,9.1-8.7,23.5,0,32.6c8.4,8.7,22.2,9,31,0.7
	c0.2-0.2,0.4-0.4,0.7-0.7l39.1-40.3l39.1,40.3c8.4,8.7,22.2,9,31,0.7c0.2-0.2,0.4-0.4,0.7-0.7c8.7-9.1,8.7-23.5,0-32.6L235.9,347
	v-50c13.4-3.6,25.7-10.4,35.9-19.7l38.8,22.3l17.6,65.6c3.2,11.9,15.4,19.1,27.4,15.9c11.9-3.2,19.1-15.4,15.9-27.4l-14.4-53.1
	l53.3-14.3c11.9-3.1,19-15.2,16-27.1c0-0.1,0-0.1,0-0.2c-3.3-11.9-15.5-18.9-27.4-15.7l-66,17.6l-37.1-21.4c2.6-8.4,4-17.2,4-26.1
	c0-8.9-1.4-17.7-4-26.2l37.1-21.3l66,17.6c11.9,3.1,24.1-3.8,27.4-15.7c3.2-11.9-3.9-24.1-15.8-27.2c0,0-0.1,0-0.1,0l-53.3-14.3
	l14.4-53.1c2.9-12-4.5-24.1-16.5-27c-11.6-2.8-23.4,4.1-26.7,15.6l-17.6,65.6l-38.8,22.3c-10.2-9.3-22.5-16.1-35.9-19.7V89.2
	l48.3-49.9c8.7-9.1,8.7-23.5,0-32.6c-8.4-8.7-22.2-9-31-0.7c-0.2,0.2-0.4,0.4-0.7,0.7l-39.1,40.3L174.5,6.8c-8.4-8.7-22.2-9-31-0.7
	c-0.2,0.2-0.4,0.4-0.7,0.7c-8.7,9.1-8.7,23.5,0,32.6l48.3,49.9v40.9c-13.4,3.6-25.7,10.4-35.9,19.7l-38.8-22.3L98.9,62
	c-3.5-11.8-16-18.6-27.8-15.1C59.7,50.3,53,61.9,55.6,73.4L70,126.5l-53.4,14.3c-11.9,3.1-19,15.2-15.9,27.1c0,0,0,0.1,0,0.1
	c3.3,11.9,15.5,18.8,27.4,15.7l66-17.6l37.1,21.3C128.6,195.8,127.3,204.7,127.2,213.5z M213.5,254.4c-22.6,0-40.9-18.3-40.9-40.9
	s18.3-40.9,40.9-40.9c22.6,0,40.9,18.3,40.9,40.9c0,22.5-18.2,40.9-40.8,40.9C213.6,254.4,213.6,254.4,213.5,254.4z"/>
</svg>
