<?xml version="1.0" encoding="utf-8"?>
<!-- Generator: Adobe Illustrator 19.2.0, SVG Export Plug-In . SVG Version: 6.00 Build 0)  -->
<svg version="1.1" id="Layer_1" xmlns="http://www.w3.org/2000/svg" xmlns:xlink="http://www.w3.org/1999/xlink" x="0px" y="0px"
	 viewBox="0 0 612 609.4" style="enable-background:new 0 0 612 609.4;" xml:space="preserve">
<style type="text/css">
	.st0{fill:#020202;}
</style>
<title>rope</title>
<g>
	<g>
		<g>
			<g>
				<path class="st0" d="M348.9,221.6c16.9-14.7,30.3-34.3,43.5-52.3c5-6.8,9.8-13.7,14.8-20.5c0.8-1.1,3.5-4.6,0.2-0.4
					c-3.2,4.2-0.3,0.6,0.8-0.4c0.4-0.4,1.4-1,1.6-1.5c-1.3,2.3-3.2,2.3-1.1,0.9c1.2-0.8,2.4-1.6,3.6-2.3c1.4-0.8,2.9-1.5,4.4-2.3
					c2.1-1.1-2.2,0.9-2.2,0.9c0.8-0.1,1.8-0.7,2.6-0.9c1.5-0.5,3.1-0.9,4.7-1.2c0.7-0.1,1.4-0.3,2-0.4c2.1-0.4,2.4,0.6-1.9,0.3
					c1.3,0.1,2.8-0.2,4.1-0.2c1.3,0,4.5,0.8,5.5,0.2c0,0-4.9-0.9-2.6-0.4c0.7,0.1,1.4,0.2,2,0.4c1.6,0.3,3.1,0.7,4.7,1.2
					c0.9,0.3,5.1,2,1.9,0.5c-3.4-1.5,2.1,1.1,3,1.6c1.4,0.8,2.8,1.7,4.2,2.7c3.4,2.3-3-2.8,0,0.1c1.2,1.2,2.5,2.3,3.7,3.6
					c3.4,3.7-1.4-2.5,0.6,0.5c1.7,2.6,3.2,5.2,4.6,7.9c1.4,2.6-1.5-4.3-0.7-1.5c0.2,0.7,0.5,1.3,0.7,2c0.6,1.8,1,3.5,1.4,5.3
					c0.1,0.7,0.2,1.4,0.4,2c0.5,2.4-0.3-2.7-0.4-2.6c-0.2,1.4,0.2,3.3,0.2,4.8c0,1.4-0.2,2.7-0.2,4.1c0,2.4,0.4-2.6,0.4-2.6
					c-0.3,1.1-0.4,2.3-0.6,3.4c-0.3,1.4-0.6,2.7-1,4c-0.3,0.9-0.6,1.7-0.9,2.6c-0.6,2.3,1-2.1,1-2.1c-1.8,2.7-3.1,5.8-4.9,8.6
					c-0.4,0.5-1.8,2.7,0,0c1.8-2.7,0-0.2-0.6,0.5c-0.6,0.7-1.2,1.3-1.9,1.9c-0.8,0.8-1.7,1.5-2.6,2.2c-0.5,0.4-1.4,0.9-1.8,1.4
					c0.9-1.2,5.1-3.9,1.7-1.4c-1.8,1.3-3.5,2.7-5.3,4c-21.7,16.2-44.5,31.9-63.7,51.1c-8.4,8.3-8.9,23.6,0,31.8
					c9,8.3,22.9,8.9,31.8,0c8.9-8.8,18.7-16.6,28.5-24.3c0.5-0.4,1.1-0.8,1.6-1.3c1.9-1.5-2,1.5-1.8,1.4c1.4-1.1,2.9-2.2,4.3-3.3
					c2.6-2,5.3-4,7.9-6c4.7-3.5,9.4-7,14.1-10.6c9.3-7,17.7-13.2,24.8-22.5c9.9-13,15.3-30.8,13.9-47.1c-1.5-18.4-8.8-36-22.4-48.9
					c-13.6-12.8-31.5-20.2-50.2-20.5c-18.6-0.2-36,7-49.9,19c-6,5.2-10.3,12.5-14.9,18.9c-3.6,5-7.1,9.9-10.8,14.8
					c-1.9,2.6-3.9,5.3-5.9,7.9c-1,1.3-2,2.7-3.1,4c-2.2,2.9,1-1.3,1.2-1.5c-0.7,0.8-1.3,1.7-2,2.5c-7.7,9.8-15.6,19.7-25,27.9
					c-8.9,7.7-8.5,24,0,31.8C326.6,230.3,339.4,229.9,348.9,221.6L348.9,221.6z"/>
			</g>
			<g>
				<path class="st0" d="M253.6,368.6c-16.9,14.7-30.3,34.3-43.5,52.3c-5,6.8-9.8,13.7-14.8,20.5c-0.8,1.1-3.5,4.6-0.2,0.4
					c3.2-4.2,0.3-0.6-0.8,0.4c-0.4,0.4-1.4,1-1.6,1.5c1.3-2.3,3.2-2.3,1.1-0.9c-1.2,0.8-2.4,1.6-3.6,2.3c-1.4,0.8-2.9,1.5-4.4,2.3
					c-2.1,1.1,2.2-0.9,2.2-0.9c-0.8,0.1-1.8,0.7-2.6,0.9c-1.5,0.5-3.1,0.9-4.7,1.2c-0.7,0.1-1.4,0.3-2,0.4c-2.1,0.4-2.4-0.6,1.9-0.3
					c-1.3-0.1-2.8,0.2-4.1,0.2c-1.3,0-4.5-0.8-5.5-0.2c0,0,4.9,0.9,2.6,0.4c-0.7-0.1-1.4-0.2-2-0.4c-1.6-0.3-3.1-0.7-4.7-1.2
					c-0.9-0.3-5.1-2-1.9-0.5c3.4,1.5-2.1-1.1-3-1.6c-1.4-0.8-2.8-1.7-4.2-2.7c-3.4-2.3,3,2.8,0-0.1c-1.2-1.2-2.5-2.3-3.7-3.6
					c-3.4-3.7,1.4,2.5-0.6-0.5c-1.7-2.6-3.2-5.2-4.6-7.9c-1.4-2.6,1.5,4.3,0.7,1.5c-0.2-0.7-0.5-1.3-0.7-2c-0.6-1.8-1-3.5-1.4-5.3
					c-0.1-0.7-0.2-1.4-0.4-2c-0.5-2.4,0.3,2.7,0.4,2.6c0.2-1.4-0.2-3.3-0.2-4.8c0-1.4,0.2-2.7,0.2-4.1c0-2.4-0.4,2.6-0.4,2.6
					c0.3-1.1,0.4-2.3,0.6-3.4c0.3-1.4,0.6-2.7,1-4c0.3-0.9,0.6-1.7,0.9-2.6c0.6-2.3-1,2.1-1,2.1c1.8-2.7,3.1-5.8,4.9-8.6
					c0.4-0.5,1.8-2.7,0,0c-1.8,2.7,0,0.2,0.6-0.5c0.6-0.7,1.2-1.3,1.9-1.9c0.8-0.8,1.7-1.5,2.6-2.2c0.5-0.4,1.4-0.9,1.8-1.4
					c-0.9,1.2-5.1,3.9-1.7,1.4c1.8-1.3,3.5-2.7,5.3-4c21.7-16.2,44.5-31.9,63.7-51.1c8.4-8.3,8.9-23.6,0-31.8
					c-9-8.3-22.9-8.9-31.8,0c-8.9,8.8-18.7,16.6-28.5,24.3c-0.5,0.4-1.1,0.8-1.6,1.3c-1.9,1.5,2-1.5,1.8-1.4
					c-1.4,1.1-2.9,2.2-4.3,3.3c-2.6,2-5.3,4-7.9,6c-4.7,3.5-9.4,7-14.1,10.6c-9.3,7-17.7,13.2-24.8,22.5
					c-9.9,13-15.3,30.8-13.9,47.1c1.5,18.4,8.8,36,22.4,48.9c13.6,12.8,31.5,20.2,50.2,20.5c18.6,0.2,36-7,49.9-19
					c6-5.2,10.3-12.5,14.9-18.9c3.6-5,7.1-9.9,10.8-14.8c1.9-2.6,3.9-5.3,5.9-7.9c1-1.3,2-2.7,3.1-4c2.2-2.9-1,1.3-1.2,1.5
					c0.7-0.8,1.3-1.7,2-2.5c7.7-9.8,15.6-19.7,25-27.9c8.9-7.7,8.5-24,0-31.8C276,359.8,263.1,360.3,253.6,368.6L253.6,368.6z"/>
			</g>
			<g>
				<path class="st0" d="M485,342.2c-26.2-26.1-52.3-52.2-78.5-78.3c-41.4-41.3-82.9-82.7-124.3-124c-9.6-9.5-19.1-19.1-28.7-28.6
					c-8.3-8.3-23.6-9-31.8,0c-8.2,9-8.9,22.9,0,31.8c26.2,26.1,52.3,52.2,78.5,78.3c41.4,41.3,82.9,82.7,124.3,124
					c9.6,9.5,19.1,19.1,28.7,28.6c8.3,8.3,23.6,9,31.8,0C493.3,365,493.9,351.1,485,342.2L485,342.2z"/>
			</g>
			<g>
				<path class="st0" d="M138.3,253.3c-15.4,15.3-32.3,29.1-49.3,42.8c-12.5,10.1-25.8,19.5-36.2,31.9c-31.4,37-44.6,85.6-34,133.3
					c10,45.4,43.4,86.5,85.8,105.7c43.7,19.8,93.3,19,135.8-3.8c19.1-10.2,34.7-24.5,48.3-41c17.8-21.6,35.5-43.3,54.4-64
					c7.9-8.7,9.2-23.3,0-31.8c-8.6-7.9-23.3-9.3-31.8,0c-16.6,18.1-32.3,37-47.8,56c-4.9,6-9.8,12.1-14.9,17.9
					c-1.8,2.1-3.7,4.1-5.7,6c-1.8,1.7-3.7,3.4-5.6,5.1c-0.9,0.8-1.9,1.6-2.9,2.4c-4.5,3.6,2.9-2.1-0.7,0.6c-4,2.8-8,5.5-12.2,8
					c-2.1,1.2-4.2,2.3-6.3,3.4c-0.8,0.4-1.7,0.8-2.6,1.3c-0.9,0.4-1.7,0.8-2.6,1.2c-2.2,1-1.7,0.8,1.5-0.6c-2,0.2-4.6,1.8-6.6,2.5
					c-2.2,0.8-4.4,1.5-6.7,2.1c-4.7,1.4-9.4,2.5-14.2,3.3c-1.1,0.2-2.3,0.2-3.4,0.5c5.6-1.5,3.1-0.4,1.2-0.2
					c-2.3,0.2-4.6,0.4-6.9,0.5c-4.8,0.2-9.7,0.2-14.5-0.1c-2.2-0.1-4.7-0.9-6.9-0.6c5.4-0.5,2.9,0.4,0.5,0c-0.9-0.2-1.8-0.3-2.7-0.5
					c-5-0.9-10-2.2-14.9-3.7c-2.2-0.7-4.4-1.5-6.6-2.3c-1.1-0.4-2.8-1.5-3.9-1.6c0.4,0,5,2.3,1.5,0.6c-4.7-2.3-9.4-4.6-13.9-7.3
					c-2.1-1.3-4.1-2.6-6.1-3.9c-1-0.7-2-1.4-3-2.1c-0.2-0.1-0.4-0.3-0.6-0.4c-1.9-1.4-1.6-1.2,1,0.8c-1.8-0.6-4.3-3.5-5.7-4.8
					c-2.3-2-4.5-4.1-6.6-6.2c-3.6-3.6-6.8-7.3-10.1-11.2c-3.2-3.8,2.2,3.1,0.4,0.5c-0.7-1-1.4-2-2.2-3c-1.7-2.4-3.3-4.8-4.8-7.3
					c-2.5-4.1-4.7-8.3-6.8-12.6c0-0.1-0.9-2.4-1.2-2.6c0.4,0.9,0.8,1.8,1.2,2.8c-0.4-0.9-0.7-1.7-1.1-2.6c-1-2.6-1.9-5.3-2.8-8
					c-1.4-4.4-2.5-8.9-3.5-13.5c-0.4-2.2-0.5-4.7-1.2-6.8c0.1,0.4,0.6,5.7,0.3,1.9c-0.1-1.6-0.3-3.2-0.4-4.8
					c-0.3-4.6-0.4-9.2-0.2-13.8c0.1-2.3,0.2-4.6,0.5-6.9c0.1-1.1,0.5-2.4,0.4-3.4c-0.5,3.7-0.6,4.3-0.2,1.9c0.1-0.5,0.1-0.9,0.2-1.4
					c1.6-9.8,4.7-18.9,8-28.2c-2.4,6.5,0.5-0.8,1.2-2.4c1.1-2.1,2.2-4.3,3.3-6.3c2.6-4.7,5.6-9,8.7-13.4c2.8-4.1-2.4,3-0.4,0.4
					c1.1-1.3,2.2-2.7,3.3-4c2-2.3,4-4.5,6.1-6.7c1.9-2,4-3.8,6.1-5.5c6.7-5.6,13.5-11,20.3-16.5c18-14.5,36.1-29,52.5-45.3
					c8.4-8.3,8.9-23.6,0-31.8C161.2,245,147.3,244.4,138.3,253.3L138.3,253.3z"/>
			</g>
			<g>
				<path class="st0" d="M115.4,246.8c26.2,26.1,52.3,52.2,78.5,78.3c41.4,41.3,82.9,82.7,124.3,124c9.6,9.5,19.1,19.1,28.7,28.6
					c8.3,8.3,23.6,9,31.8,0c8.2-9,8.9-22.9,0-31.8c-26.2-26.1-52.3-52.2-78.5-78.3c-41.4-41.3-82.9-82.7-124.3-124
					c-9.6-9.5-19.1-19.1-28.7-28.6c-8.3-8.3-23.6-9-31.8,0C107.2,223.9,106.5,237.9,115.4,246.8L115.4,246.8z"/>
			</g>
			<g>
				<path class="st0" d="M167.9,195c13.4,13.3,26.7,26.7,40.1,40c28.4,28.3,56.8,56.7,85.2,85c26.8,26.7,53.6,53.5,80.4,80.2
					c7.3,7.3,14.7,14.6,22,21.9c1.3,1.3,2.5,2.6,3.8,3.8c1.5,1.4,3.3,2.6,5,3.8c3.4,2.4-3.5-3-2.6-2.1c1.7,1.6,3.4,3.1,5,4.8
					c2.2,2.4,4.3,4.9,6.4,7.4c2.9,3.6-2.1-2.8-1.3-1.7c0.6,0.8,1.2,1.7,1.9,2.5c1.4,1.9,2.8,3.9,4.1,5.8
					c6.2,9.1,11.7,18.6,16.7,28.3c1.5,2.9,2.9,5.7,4.2,8.6c0.7,1.5,1.4,3,2.1,4.5c0.3,0.8,0.7,1.5,1,2.3c0.3,0.8,1.9,4.4,0.4,0.9
					c-1.5-3.5,0.5,1.2,0.9,2.2c0.7,1.7,1.3,3.3,2,5c1.4,3.7,2.8,7.4,4,11.1c5.4,15.8,9.5,32,12.4,48.5c0.4,2.2,0.8,4.4,1.1,6.6
					c0.2,1.1,0.3,2.2,0.5,3.3c0.5,3.4-0.7-0.2-0.1-0.9c-0.5,0.5,0.7,5.4,0.7,6c0.3,2.6,0.6,5.3,0.8,7.9c1.1,11.7,9.6,23.1,22.5,22.5
					c11.3-0.5,23.6-9.9,22.5-22.5c-5.3-58.6-23.4-119.1-59.6-166.3c-4.7-6.2-9.5-12.6-15.3-17.8c-2-1.8-4.2-3.5-6.3-5
					c-2.6-1.9-1.1-2.4,2.9,2.4c-0.2-0.3-0.5-0.5-0.8-0.8c-5.4-5.6-11.1-11-16.6-16.6c-25.3-25.2-50.6-50.4-75.8-75.6
					c-29.5-29.4-59-58.8-88.4-88.2c-16.4-16.3-32.4-33-49.1-49c-0.2-0.2-0.5-0.5-0.7-0.7c-8.3-8.3-23.6-9-31.8,0
					C159.7,172.1,159,186.1,167.9,195L167.9,195z"/>
			</g>
			<g>
				<path class="st0" d="M464.2,336.9c15.7-15.7,33.1-29.7,50.3-43.6c12.4-10,25.4-19.3,35.6-31.6c31.3-37.3,44.4-86.3,33.2-134
					C572.8,82,539,41.2,496,22.5c-44.1-19.3-94.2-17.7-136.4,6c-11.9,6.7-23.1,15.2-32.8,24.8c-5.2,5.1-9.5,11.1-13.9,16.8
					c-16.8,21.6-34.1,42.7-53.4,62.1c-8.3,8.4-9,23.6,0,31.8c9,8.2,22.9,8.9,31.8,0c16.9-17,32.4-35.3,47.2-54.2
					c9.5-12.2,18.3-23.7,30.3-33.7c4-3.3-4.1,2.9,0.1-0.1c0.8-0.6,1.6-1.1,2.4-1.7c2.2-1.5,4.4-3,6.7-4.4c4.3-2.6,8.7-5,13.2-7.1
					c1.3-0.6,5.9-2.2-0.2,0c0.9-0.3,1.7-0.7,2.6-1.1c2.4-0.9,4.8-1.8,7.3-2.6c4.6-1.5,9.4-2.7,14.2-3.7c2.2-0.4,4.7-0.5,6.8-1.2
					c-6,1.7-2.4,0.3-0.5,0.1c1.1-0.1,2.3-0.2,3.4-0.3c4.8-0.3,9.7-0.4,14.5-0.2c2.3,0.1,4.6,0.3,6.9,0.5c1.9,0.2,5.6,1.5-0.5-0.1
					c1.1,0.3,2.3,0.3,3.4,0.5c4.8,0.8,9.6,1.9,14.2,3.3c2.2,0.7,4.5,1.4,6.7,2.1c1.3,0.5,2.6,1,4,1.5c0.6,0.2,4.9,1.5,1.2,0.5
					c-3.6-1,0.5,0.3,1.2,0.6c1.1,0.5,2.1,1,3.2,1.5c2.4,1.2,4.7,2.4,6.9,3.7c4.4,2.6,8.6,5.5,12.8,8.4c2.7,1.9-4.3-3.6-0.5-0.4
					c1,0.8,1.9,1.6,2.9,2.4c2.1,1.8,4.2,3.6,6.2,5.5c3.8,3.7,7.4,7.5,10.8,11.6c0.7,0.8,2,1.9,2.3,2.9c-0.6-0.7-1.1-1.5-1.7-2.2
					c0.4,0.6,0.9,1.2,1.3,1.8c1.6,2.2,3.1,4.4,4.5,6.6c2.7,4.2,5.2,8.6,7.4,13.2c0.5,1.1,1,2.2,1.5,3.2c2.1,4.4-1.5-3.8-0.3-0.8
					c0.9,2.4,1.9,4.8,2.7,7.3c1.6,4.6,2.9,9.3,3.9,14.1c0.5,2.3,0.9,4.5,1.3,6.8c0.4,2.3-0.6,3.9-0.1-1.2c-0.1,1.3,0.3,2.8,0.4,4.1
					c0.4,4.8,0.6,9.7,0.4,14.5c-0.1,2.3-0.2,4.6-0.4,6.9c-0.1,1.1-0.2,2.3-0.3,3.4c-0.4,4.7,0.8-4.8,0.1-0.5
					c-1.7,9.7-4.2,19-7.7,28.2c-1.8,4.7,2.2-4.7,0-0.2c-0.5,1.1-1,2.2-1.5,3.2c-1,2.1-2.1,4.3-3.3,6.3c-2.5,4.4-5.2,8.7-8.2,12.9
					c-0.3,0.4-0.6,0.8-0.9,1.2c-1.4,1.9-1.2,1.6,0.8-1c-0.4,1.2-2,2.5-2.8,3.5c-1.9,2.3-4,4.5-6,6.7c-2.2,2.3-4.4,4.4-6.8,6.4
					c-6.6,5.6-13.4,10.9-20.1,16.3c-18.2,14.6-36.5,29.3-53,45.8c-8.4,8.3-8.9,23.6,0,31.8C441.4,345.1,455.3,345.8,464.2,336.9
					L464.2,336.9z"/>
			</g>
		</g>
	</g>
</g>
</svg>
