<?xml version="1.0" encoding="utf-8"?>
<!-- Generator: Adobe Illustrator 19.2.0, SVG Export Plug-In . SVG Version: 6.00 Build 0)  -->
<svg version="1.1" id="Layer_1" xmlns="http://www.w3.org/2000/svg" xmlns:xlink="http://www.w3.org/1999/xlink" x="0px" y="0px"
	 viewBox="0 0 439 386" style="enable-background:new 0 0 439 386;" xml:space="preserve">
<style type="text/css">
	.st0{fill:none;stroke:#000000;stroke-width:28;stroke-linecap:round;stroke-miterlimit:10;}
	.st1{fill:none;stroke:#000000;stroke-width:52;stroke-linecap:round;stroke-miterlimit:10;}
</style>
<circle cx="364.9" cy="129.7" r="62.5"/>
<g>
	<path class="st0" d="M30.5,263.9c35.1,0,35.1,40,70.2,40c35.1,0,35.1-40,70.2-40c35.1,0,35.1,40,70.2,40c35.1,0,35.1-40,70.2-40
		s35.1,40,70.2,40"/>
</g>
<g>
	<path class="st0" d="M30.5,322.9c35.1,0,35.1,40,70.2,40c35.1,0,35.1-40,70.2-40c35.1,0,35.1,40,70.2,40c35.1,0,35.1-40,70.2-40
		s35.1,40,70.2,40"/>
</g>
<line class="st1" x1="322.2" y1="30.4" x2="198" y2="60.5"/>
<line class="st1" x1="198" y1="60.5" x2="242.5" y2="138"/>
<g>
	<path d="M376.5,259.7c-19.5,5.3-36.5-14.3-45.6-24.8c-8.8-10-13.9-15.2-24.6-15.2s-15.8,5.2-24.6,15.2
		c-9.2,10.5-21.7,24.8-45.6,24.8s-36.5-14.3-45.6-24.8c-8.8-10-13.9-15.2-24.6-15.2c-10.7,0-15.8,5.2-24.6,15.2
		c-9.2,10.5-21.7,24.8-45.6,24.8c-23.9,0-36.5-14.3-45.6-24.8c-6.5-7.4-9.9-9.7-11.7-10.6c-1.2-0.6-1.5-0.6-1.6-0.9
		c0,0,52.7-28.6,103.3-55.5l107-68.8l64.6,80.2c0,0,27.9,27.5,41.4,36.5c11.9,8,26,16.9,28.4,35.3L376.5,259.7z"/>
</g>
</svg>
