<?xml version="1.0" encoding="utf-8"?>
<!-- Generator: Adobe Illustrator 19.2.0, SVG Export Plug-In . SVG Version: 6.00 Build 0)  -->
<svg version="1.1" id="Layer_1" xmlns="http://www.w3.org/2000/svg" xmlns:xlink="http://www.w3.org/1999/xlink" x="0px" y="0px"
	 viewBox="0 0 323.2 397.9" style="enable-background:new 0 0 323.2 397.9;" xml:space="preserve">
<style type="text/css">
	.st0{fill:none;}
</style>
<polygon points="84.7,125.4 56.9,175.4 13.2,151.2 80.5,30 80.4,29.8 106.4,29.8 "/>
<path d="M90.4,166.6l-2.4-33l23.6-103.9h4.2l5.5-13.3h75l5.5,13.3h4.9l22.9,101.1v0l-3,36.1c-9.4,3.8-16.4,9.6-23.2,15.2
	c-11.5,9.5-22.3,18.4-44.4,18.4c-22.1,0-32.9-9-44.4-18.4C107.5,176.3,100.3,170.4,90.4,166.6z"/>
<path d="M249.8,372.3l-64.2,10.4l-25-154.5c-1-2.5-2-4.1-2.8-5c-0.7,0.9-1.7,2.4-2.7,4.9l-25,154.8L66,372.5l27.2-167.9l-2.3-32.4
	c8,3.5,14.2,8.6,20.6,13.9c11.6,9.6,23.7,19.6,47.6,19.6c23.9,0,35.9-10,47.5-19.6c6.1-5,12-10,19.6-13.4l-2.9,34.7L249.8,372.3z"/>
<polygon points="305,151.2 261.3,175.4 233.3,125 233.3,125 211.7,29.8 238,29.8 238,30.3 "/>
<polygon class="st0" points="111.5,29.8 88,133.6 87.1,121.2 84.7,125.4 106.4,29.8 "/>
<polygon class="st0" points="88,133.6 84.4,149.4 79.5,148.3 84.7,125.4 87.1,121.2 "/>
<polygon class="st0" points="113.1,23.1 111.5,29.8 106.4,29.8 108.2,21.9 "/>
<polygon class="st0" points="233.3,125 230.5,119.8 229.5,130.9 206.6,29.8 211.7,29.8 "/>
<polygon class="st0" points="211.7,29.8 206.6,29.8 204.9,22.1 209.7,20.9 "/>
<polygon class="st0" points="238.4,147.3 233.5,148.4 229.5,130.9 229.5,130.9 230.5,119.8 233.3,125 233.3,125 "/>
<path class="st0" d="M226.5,167l-0.5,5.6c-7.5,3.5-13.5,8.4-19.6,13.4c-11.6,9.6-23.7,19.6-47.5,19.6c-23.9,0-35.9-10-47.6-19.6
	c-6.4-5.3-12.5-10.4-20.6-13.9l-0.4-5.6c9.9,3.8,17.1,9.7,24.2,15.6c11.5,9.5,22.3,18.4,44.4,18.4c22.1,0,32.9-9,44.4-18.4
	C210.1,176.5,217.1,170.7,226.5,167z"/>
<path class="st0" d="M90.8,172.2c-6.4-2.8-14-4.6-23.8-4.6v-5c9.4,0,17,1.5,23.4,4L90.8,172.2z"/>
<path class="st0" d="M250.8,162.6v5c-10.3,0-18.2,1.9-24.8,5l0.5-5.6C233.1,164.3,241,162.6,250.8,162.6z"/>
</svg>
